# xmcd
#
# Track frame offsets:
#	150
#	16181
#	34742
#	51420
#	67884
#	83528
#	103374
#	124729
#	140515
#	162416
#	168426
#
# Disc length: 2507 seconds
#
# Revision: 12
# Processed by: cddbd v1.5.2PL0 Copyright (c) Steve Scherf et al.
# Submitted via: EZCDAudioConverter 7.1.5.1
#
DISCID=8f09c90b
DTITLE=刘若英 - 我的失败与伟大
DYEAR=2004
DGENRE=
TTITLE0=我的失败与伟大
TTITLE1=分开旅行
TTITLE2=开始的那句话
TTITLE3=原来你也在这里
TTITLE4=换我先吻你
TTITLE5=我的眼前的幸福
TTITLE6=什么时候
TTITLE7=如何让你懂
TTITLE8=似水年华
TTITLE9=下楼谈恋爱
TTITLE10=蝴蝶
EXTD=
EXTT0=
EXTT1=
EXTT2=
EXTT3=
EXTT4=
EXTT5=
EXTT6=
EXTT7=
EXTT8=
EXTT9=
EXTT10=
PLAYORDER=
